<svg width="2354" height="1050" viewBox="0 0 2354 1050" fill="none" xmlns="http://www.w3.org/2000/svg">
<path fill-rule="evenodd" clip-rule="evenodd" d="M0.525635 328.339V492.407H480.446C536.229 492.407 607.498 440.826 607.498 355.498C607.498 321.18 620.623 298.794 580.287 253.4L518.901 180.666C483.727 147.852 523.103 147.852 552.649 147.852H755.275V492.407H915.971V147.852H1132.55V0.295227H431.226C345.898 0.295227 304.174 82.2252 306.521 124.883C308.882 167.54 316.728 221.209 387.634 285.682C452.314 344.474 355.612 328.339 345.897 328.339H0.525635V328.339ZM1487.89 0.295227H1228.65L1083.32 492.42H1245.05L1271.29 423.512H1441.92L1467.25 492.42H1625.68L1487.89 0.295227V0.295227ZM1307.4 305.37L1363.18 124.883L1415.7 305.37H1307.4V305.37ZM2137.61 328.339C2075.26 328.339 2075.26 305.37 2075.26 305.37C2128.68 305.37 2176.05 227.539 2176.05 147.852C2176.05 68.166 2098.23 0.295227 2035.86 0.295227H1687.09V492.42H1864.31V328.352C1864.31 328.352 1939.76 416.949 1979.14 453.044C2018.53 489.139 2021.8 492.42 2075.25 492.42H2353.44V328.352C2353.46 328.34 2199.95 328.339 2137.61 328.339V328.339ZM1976.81 213.492H1864.33V124.883H1976.81C2028.37 124.883 2037.3 213.492 1976.81 213.492ZM0.525635 554.753H181.83L227.769 718.846L270.426 554.753H460.758L509.978 718.846L559.211 554.753H716.716L572.324 1046.99H427.944L364.678 813.992L293.396 1046.99H145.735L0.525635 554.753ZM1088.81 557.593H829.566L684.253 1049.7H845.973L872.224 980.81H1042.87L1068.2 1049.7H1226.64L1088.81 557.593ZM908.331 862.655L964.114 682.168L1016.62 862.655H908.331ZM2140.87 702.439C2111.37 702.439 2079.19 705.889 2114.38 738.69L2175.78 811.437C2216.1 856.831 2215.45 875.754 2215.45 910.098C2215.45 995.413 2131.04 1046.99 2075.26 1046.99L1687.52 1049.6C1634.09 1049.6 1630.83 1046.33 1591.44 1010.24C1552.07 974.143 1476.59 885.534 1476.59 885.534V1049.6H1299.4V557.489H1648.17C1710.51 557.489 1788.36 625.373 1788.36 705.046C1788.36 784.746 1740.99 862.564 1687.54 862.564C1687.54 862.564 1711.04 886.195 1750.42 886.195C1789.81 886.195 1941.42 886.351 1941.42 886.351C1951.13 886.351 2047.82 902.485 1983.15 843.693C1912.24 779.22 1904.4 725.577 1902.04 682.92C1899.68 640.262 1936.56 554.766 2021.85 554.766H2353.49V702.452H2140.87V702.439V702.439ZM1589.08 770.673H1476.58V682.064H1589.08C1640.66 682.064 1649.57 770.673 1589.08 770.673Z" fill="white"/>
</svg>
